<svg fill="currentColor" xmlns="http://www.w3.org/2000/svg" xmlns:xlink="http://www.w3.org/1999/xlink" version="1.1" viewBox="-10 -10 120 120"><path d="M11.9,80c0-1.4,1.1-2.5,2.5-2.5h34.1c1.4,0,2.5,1.1,2.5,2.5c0,1.4-1.1,2.5-2.5,2.5H14.4C13.1,82.5,11.9,81.4,11.9,80z   M1.4,29.3v53c0,5.9,4.7,10.6,10.6,10.6h47c5.9,0,10.6-4.7,10.6-10.6v-5.7c-1.6,0.7-3.3,1.3-5,1.7v4c0,3.1-2.5,5.6-5.6,5.6H12  c-3.1,0-5.6-2.5-5.6-5.6V30.8h8.9c5.8,0,10.6-4.8,10.6-10.6v-8.1H59c3.1,0,5.6,2.5,5.6,5.6v5.7c1.7,0.4,3.4,1,5,1.7v-7.4  c0-5.9-4.7-10.6-10.6-10.6H24.3c-0.6,0-1.2,0.1-1.8,0.3c-0.6,0.2-1.1,0.6-1.5,1L2.8,25.9c-0.5,0.4-0.8,1-1.1,1.6S1.4,28.7,1.4,29.3z   M36.8,32.5c0.5-0.5,1-1.1,1.5-1.6c1.3-1.3,2.7-2.4,4.1-3.4h-9.1c-1.4,0-2.5,1.1-2.5,2.5s1.1,2.5,2.5,2.5H36.8z M14.6,72.5h25.5  c-0.7-0.5-1.3-1.1-1.9-1.7c-1-1-2-2.1-2.8-3.3H14.6c-1.4,0-2.5,1.1-2.5,2.5C12.1,71.4,13.3,72.5,14.6,72.5z M12.1,60  c0,1.4,1.1,2.5,2.5,2.5h17.9c-0.7-1.6-1.3-3.3-1.7-5H14.6C13.3,57.5,12.1,58.6,12.1,60L12.1,60z M14.6,52.5h15.4  c0-0.6-0.1-1.1-0.1-1.7c0-1.1,0.1-2.2,0.2-3.3H14.6c-1.4,0-2.5,1.1-2.5,2.5C12.1,51.4,13.3,52.5,14.6,52.5z M12.1,40  c0,1.4,1.1,2.5,2.5,2.5h16.6c0.5-1.7,1.2-3.4,2.1-5H14.6C13.3,37.5,12.1,38.6,12.1,40z M58.2,74c-5.9,0-11.9-2.3-16.4-6.8  c-9.1-9.1-9.1-23.7,0-32.8c4.5-4.5,10.5-6.8,16.4-6.8c5.9,0,11.9,2.3,16.4,6.8c8.3,8.3,9,21.3,2.1,30.4l2.5,2.5l0.9-0.9l17.3,17.3  c1.7,1.7,1.7,4.5,0,6.2c-0.9,0.9-2,1.3-3.1,1.3c-1.1,0-2.2-0.4-3.1-1.3L73.8,72.7l0.9-0.9l-2.5-2.5C68.1,72.4,63.1,74,58.2,74z   M46.1,62.9c3.3,3.3,7.7,5,12.1,5c4.4,0,8.8-1.7,12.1-5c6.7-6.7,6.7-17.5,0-24.2c-3.3-3.3-7.7-5-12.1-5c-4.4,0-8.8,1.7-12.1,5  C39.4,45.4,39.4,56.3,46.1,62.9z M69,58.2c-0.2-0.1-0.5-0.2-0.8-0.3c-3.1-0.8-5.7-1.9-5.7-1.9c-0.3-0.4-0.5-1.2-0.5-1.6  c0.7-0.9,1.1-2.1,1.2-3.1c0.3,0.2,0.8,0.1,1.3-1.8c0.4-1.6,0.2-2.1-0.2-2.2h0c1.2-6-1.6-6.2-1.6-6.2s-0.4-0.8-1.6-1.5  c-0.8-0.5-1.8-0.8-3.2-0.7c-0.4,0-0.9,0.1-1.3,0.2l0,0c-0.5,0.2-1,0.4-1.4,0.7c-0.5,0.3-1,0.7-1.4,1.2c-0.7,0.7-1.3,1.6-1.6,2.8  c-0.3,1-0.2,2,0.1,3.1c-0.5,0-1.1,0.3-0.5,2.3c0.4,1.5,0.8,1.9,1.1,1.9c0.2,1.1,0.5,2.3,1.3,3.4c-0.1,0.4-0.2,1-0.5,1.5  c0,0-2.7,1.3-5.8,2.1c-0.3,0.1-0.6,0.2-0.8,0.3c2.3,3.5,6.3,5.8,10.9,5.8C62.7,64,66.7,61.7,69,58.2z"></path></svg>
