<?xml version="1.0" encoding="utf-8"?>
<!DOCTYPE svg PUBLIC "-//W3C//DTD SVG 1.1//EN" "http://www.w3.org/Graphics/SVG/1.1/DTD/svg11.dtd">
<svg version="1.1" xmlns="http://www.w3.org/2000/svg" xmlns:xlink="http://www.w3.org/1999/xlink" x="0px" y="0px" viewBox="0 0 1000 1000" enable-background="new 0 0 1000 1000" xml:space="preserve">
<g><g transform="translate(0.000000,511.000000) scale(0.100000,-0.100000)"><path d="M4640.5,4963.6C2364.4,4808.9,480.5,3068.7,135.2,809.1c-46.9-309.4-46.9-1113.2,0-1408.8c323.2-2049.6,1870.1-3665.6,3897.6-4074.4c563.5-113.2,1370.1-113.2,1933.6,0c2027.5,408.8,3571.7,2022,3900.4,4074.4c44.2,284.5,44.2,1124.3,0,1408.8c-256.9,1602.1-1232,2930.8-2682.2,3660.1c-505.5,251.4-1185,444.7-1701.6,483.4C5030,4985.7,4949.9,4985.7,4640.5,4963.6z M7872.5,2165.4c135.4-71.8,243.1-176.8,312.1-306.6c60.8-110.5,60.8-121.5,60.8-1754.1v-1643.6l-69.1-124.3c-80.1-143.6-262.4-290-408.8-331.5c-140.9-38.7-5394.8-38.7-5535.7,0c-146.4,41.4-328.7,187.8-408.8,331.5l-69.1,124.3V104.7c0,1549.7,2.8,1649.1,52.5,1740.3c96.7,182.3,240.3,303.9,430.9,361.9c38.7,11,1298.3,19.3,2803.7,16.6C7651.5,2217.9,7781.3,2215.1,7872.5,2165.4z"/><path d="M2425.2,858.8c-2.8-392.2-5.5-1046.9-5.5-1458.5l-2.8-745.8l2591-8.3l2588.3-5.5l-5.5,1455.7l-8.3,1458.5l-2574.5,8.3l-2577.2,5.5L2425.2,858.8z M3897.5,850.5l1104.9-555.2l820.4,419.9c450.3,229.3,942,480.6,1088.4,555.2c292.8,151.9,383.9,160.2,442,35.9c63.5-140.9,16.6-176.8-770.7-580.1c-406.1-207.2-751.4-389.5-767.9-403.3c-16.6-16.6,163-209.9,505.5-544.2c475.1-461.3,533.1-524.8,530.4-605c0-93.9-80.1-174-176.8-174c-33.1,0-281.7,226.5-635.3,577.3l-582.8,580.1L5248.3,46.7C5135-11.3,5021.7-61,4996.9-61C4972-61,4856-11.3,4737.2,52.2l-212.7,113.3l-585.6-582.9c-610.5-607.7-654.7-638.1-767.9-535.9c-116,105-77.3,160.2,494.5,732l541.4,541.4L3450,698.6c-417.1,209.9-779,397.8-803.8,422.6c-27.6,22.1-49.7,71.8-49.7,107.7c0,71.8,88.4,174,151.9,174C2770.5,1403,3287,1154.4,3897.5,850.5z"/></g></g>
</svg>